<?xml version="1.0" standalone="no"?>
<!DOCTYPE svg PUBLIC "-//W3C//DTD SVG 20010904//EN"
 "http://www.w3.org/TR/2001/REC-SVG-20010904/DTD/svg10.dtd">
<svg version="1.0" xmlns="http://www.w3.org/2000/svg"
 width="360.000000pt" height="500.000000pt" viewBox="0 0 360.000000 500.000000"
 preserveAspectRatio="xMidYMid meet">

<g transform="translate(0.000000,500.000000) scale(0.100000,-0.100000)"
fill="#000000" stroke="none">
<path d="M1469 4770 c-120 -21 -170 -93 -194 -278 -7 -53 -7 -53 35 -90 85
-74 176 -113 195 -82 3 5 -3 27 -15 49 -35 70 -25 94 44 104 51 8 80 37 120
119 32 65 33 67 54 52 21 -14 22 -14 22 8 0 34 -35 85 -69 103 -38 19 -131 27
-192 15z"/>
<path d="M1244 4389 c-10 -12 -63 -50 -116 -85 -158 -102 -175 -145 -133 -317
34 -136 31 -158 -31 -256 -72 -112 -71 -186 2 -251 74 -65 216 -69 282 -7 36
33 63 93 69 153 5 49 2 62 -52 174 -32 66 -60 140 -62 164 -5 41 -3 46 40 90
37 37 48 56 57 103 18 86 -1 253 -28 253 -5 0 -17 -10 -28 -21z"/>
<path d="M2945 2908 c-57 -31 -71 -96 -32 -145 22 -27 27 -68 121 -1061 54
-569 96 -1035 94 -1036 -1 -1 -24 -10 -50 -20 -95 -35 -174 -118 -199 -211
l-10 -35 -251 0 c-189 0 -255 -3 -267 -13 -13 -10 -66 -11 -246 -6 -126 4
-487 11 -802 15 l-572 7 -7 31 c-28 137 -164 235 -324 236 -113 0 -172 -36
-137 -84 13 -17 19 -18 80 -7 104 18 183 -6 251 -78 28 -29 61 -124 50 -142
-11 -18 -20 -8 -38 43 -24 69 -72 113 -142 134 -141 41 -274 -56 -274 -199 0
-78 32 -133 100 -174 61 -37 134 -44 194 -19 49 21 102 72 120 116 19 49 44
52 68 10 9 -17 29 -35 43 -40 17 -6 414 -10 1096 -10 1143 0 1114 -1 1134 47
4 10 9 46 11 81 2 35 13 79 23 101 30 57 109 121 152 121 23 0 6 -46 -30 -76
-50 -43 -71 -89 -71 -156 0 -155 165 -256 306 -187 77 37 124 111 124 194 0
45 -43 129 -80 155 -17 12 -51 28 -73 35 -25 7 -43 19 -45 29 -3 15 2 17 40
11 52 -8 74 9 64 49 -5 20 -16 27 -61 37 -30 7 -55 17 -55 23 -1 6 -43 472
-94 1036 -91 1006 -93 1025 -75 1049 62 79 -46 189 -136 139z m405 -2427 c36
-29 80 -95 80 -121 0 -8 -11 8 -24 36 -26 56 -71 96 -126 113 l-35 11 35 -5
c19 -3 51 -18 70 -34z m-2994 19 c-27 -5 -51 -19 -73 -44 -18 -19 -33 -32 -33
-27 0 5 18 25 40 45 30 27 48 36 73 35 31 -1 31 -1 -7 -9z m2958 -39 c29 -19
66 -68 66 -86 -1 -5 -6 -1 -12 10 -19 35 -52 67 -83 81 -16 7 -23 13 -15 14 8
0 28 -9 44 -19z m-2857 -73 c31 -29 30 -72 -2 -103 -26 -27 -54 -31 -88 -13
-50 26 -60 69 -26 112 27 34 82 36 116 4z m2853 -54 c0 -59 -69 -93 -118 -58
-35 24 -45 59 -27 95 18 35 35 38 35 7 0 -33 14 -51 36 -46 14 2 20 13 22 42
l3 38 25 -23 c16 -15 24 -33 24 -55z m-2817 -84 c-23 -22 -50 -40 -60 -40 -12
1 -7 6 12 14 17 7 41 25 54 40 14 14 27 26 30 26 3 0 -13 -18 -36 -40z m58 1
c-29 -41 -72 -70 -113 -77 l-33 -5 37 14 c55 21 84 43 104 76 10 17 20 29 22
26 2 -2 -5 -17 -17 -34z m2600 -45 c13 -9 18 -16 12 -16 -14 0 -73 67 -73 83
0 7 9 -2 19 -19 11 -18 30 -39 42 -48z m72 -23 c-7 -2 -21 -2 -30 0 -10 3 -4
5 12 5 17 0 24 -2 18 -5z"/>
<path d="M2045 2850 c-82 -4 -241 -8 -352 -9 l-203 -1 0 -492 0 -493 -271
-179 c-148 -99 -268 -183 -267 -188 2 -4 77 -96 168 -204 l165 -195 47 6 c26
3 66 12 89 20 64 23 68 21 71 -37 l3 -53 70 -18 c99 -25 211 -32 301 -18 71
12 144 35 144 46 0 3 24 85 54 183 30 97 65 215 77 262 17 63 33 97 60 130 79
96 144 246 176 406 13 65 17 135 17 259 0 167 -8 243 -53 485 l-17 95 -64 1
c-36 0 -132 -2 -215 -6z"/>
<path d="M724 1316 c-33 -25 -87 -73 -122 -109 l-63 -64 256 -349 c141 -192
260 -353 265 -357 15 -16 98 42 121 85 6 10 -5 83 -31 214 -22 109 -40 199
-40 200 0 1 -52 34 -115 74 -63 39 -131 86 -150 104 -31 29 -35 39 -35 82 0
31 -8 64 -20 88 -17 30 -18 41 -9 52 26 32 -2 22 -57 -20z"/>
<path d="M1474 668 c3 -73 10 -149 14 -168 l8 -35 438 -13 c365 -11 440 -11
447 0 12 19 11 103 -2 130 -7 17 -63 50 -192 115 l-182 91 -95 -35 c-100 -37
-217 -73 -236 -73 -6 0 -32 14 -59 32 -26 17 -64 34 -84 37 -27 5 -37 12 -39
29 -2 12 -8 22 -14 22 -8 0 -9 -40 -4 -132z"/>
</g>
</svg>
